<svg xmlns="http://www.w3.org/2000/svg" viewBox="0 0 512 512">
  <defs>
    <radialGradient id="bg" cx="50%" cy="45%" r="70%">
      <stop offset="0%" stop-color="#242424"/>
      <stop offset="100%" stop-color="#1a1a1a"/>
    </radialGradient>

    <linearGradient id="flame" x1="0%" y1="100%" x2="0%" y2="0%">
      <stop offset="0%" stop-color="#5b9cf6"/>
      <stop offset="50%" stop-color="#8bbcff"/>
      <stop offset="100%" stop-color="#ffffff"/>
    </linearGradient>

    <filter id="glow">
      <feGaussianBlur stdDeviation="6" result="blur"/>
      <feMerge>
        <feMergeNode in="blur"/>
        <feMergeNode in="SourceGraphic"/>
      </feMerge>
    </filter>
  </defs>

  <rect width="512" height="512" rx="96" fill="url(#bg)"/>

  <rect x="72" y="174" width="368" height="164" rx="38" fill="#252525" stroke="#5b9cf6" stroke-width="8"/>
  <rect x="156" y="194" width="200" height="120" rx="12" fill="#0d0d14" stroke="#5b9cf6" stroke-width="4"/>

  <path
    d="M256 292
       C234 268 222 246 229 226
       C233 213 242 205 248 194
       C247 211 254 216 260 207
       C257 190 263 176 274 164
       C287 182 291 199 287 218
       C295 214 300 205 298 192
       C312 207 321 224 321 244
       C321 266 298 286 256 292Z"
    fill="url(#flame)"
    filter="url(#glow)"
  />

  <path
    d="M258 278
       C246 263 240 251 244 238
       C247 230 252 225 256 218
       C256 229 261 232 265 226
       C264 215 268 206 276 198
       C283 210 285 222 282 234
       C287 232 291 226 290 218
       C299 229 303 239 302 250
       C300 264 284 276 258 278Z"
    fill="#ffffff"
    opacity="0.82"
  />

  <rect x="104" y="242" width="46" height="14" rx="4" fill="#5b9cf6"/>
  <rect x="120" y="226" width="14" height="46" rx="4" fill="#5b9cf6"/>

  <circle cx="386" cy="236" r="8" fill="none" stroke="#5b9cf6" stroke-width="4"/>
  <circle cx="406" cy="256" r="8" fill="none" stroke="#5b9cf6" stroke-width="4"/>
  <circle cx="366" cy="256" r="8" fill="none" stroke="#5b9cf6" stroke-width="4"/>
  <circle cx="386" cy="276" r="8" fill="none" stroke="#5b9cf6" stroke-width="4"/>

  <circle cx="136" cy="296" r="14" fill="#333333" stroke="#5b9cf6" stroke-width="4"/>
  <circle cx="256" cy="324" r="8" fill="none" stroke="#5b9cf6" stroke-width="3"/>
</svg>
